<svg width="20" height="20" viewBox="0 0 20 20" fill="none" xmlns="http://www.w3.org/2000/svg">
<path d="M19.1667 3.33333H15.5556V1.94444C15.5556 1.48264 15.184 1.11111 14.7222 1.11111H5.27778C4.81597 1.11111 4.44444 1.48264 4.44444 1.94444V3.33333H0.833333C0.371528 3.33333 0 3.70486 0 4.16667V6.11111C0 7.35069 0.78125 8.625 2.14931 9.60764C3.24306 10.3958 4.57292 10.8958 5.96875 11.0556C7.05903 12.8646 8.33333 13.6111 8.33333 13.6111V16.1111H6.66667C5.44097 16.1111 4.44444 16.8299 4.44444 18.0556V18.4722C4.44444 18.7014 4.63194 18.8889 4.86111 18.8889H15.1389C15.3681 18.8889 15.5556 18.7014 15.5556 18.4722V18.0556C15.5556 16.8299 14.559 16.1111 13.3333 16.1111H11.6667V13.6111C11.6667 13.6111 12.941 12.8646 14.0313 11.0556C15.4306 10.8958 16.7604 10.3958 17.8507 9.60764C19.2153 8.625 20 7.35069 20 6.11111V4.16667C20 3.70486 19.6285 3.33333 19.1667 3.33333ZM3.44792 7.80556C2.60069 7.19444 2.22222 6.51389 2.22222 6.11111V5.55556H4.45139C4.48611 6.6875 4.65278 7.68056 4.89583 8.54861C4.37153 8.36806 3.88194 8.11806 3.44792 7.80556ZM17.7778 6.11111C17.7778 6.67014 17.1632 7.36458 16.5521 7.80556C16.1181 8.11806 15.625 8.36806 15.1007 8.54861C15.3438 7.68056 15.5104 6.6875 15.5451 5.55556H17.7778V6.11111Z" fill="white"/>
</svg>
