<svg width="32" height="32" viewBox="0 0 32 32" fill="none" xmlns="http://www.w3.org/2000/svg">
<path d="M24.4853 7.51467L19.7707 12.2293M24.4853 7.51467C22.2349 5.26423 19.1826 4 16 4C12.8174 4 9.7651 5.26423 7.51467 7.51467M24.4853 7.51467C26.7358 9.7651 28 12.8174 28 16C28 17.5759 27.6896 19.1363 27.0866 20.5922C26.4835 22.0481 25.5996 23.371 24.4853 24.4853M19.7707 12.2293C18.7705 11.2291 17.4145 10.6667 16 10.6667C14.5855 10.6667 13.2295 11.2291 12.2293 12.2293M19.7707 12.2293C20.7709 13.2295 21.3333 14.5855 21.3333 16C21.3333 17.4145 20.7709 18.7705 19.7707 19.7707M19.7707 19.7707L24.4853 24.4853M19.7707 19.7707C18.7705 20.7709 17.4145 21.3333 16 21.3333C14.5855 21.3333 13.2295 20.7709 12.2293 19.7707M24.4853 24.4853C23.371 25.5996 22.0481 26.4835 20.5922 27.0866C19.1363 27.6896 17.5759 28 16 28C14.4241 28 12.8637 27.6896 11.4078 27.0866C9.95189 26.4835 8.62897 25.5996 7.51467 24.4853M12.2293 12.2293L7.51467 7.51467M12.2293 12.2293C11.2291 13.2295 10.6667 14.5855 10.6667 16C10.6667 17.4145 11.2291 18.7705 12.2293 19.7707M7.51467 7.51467C5.26423 9.7651 4 12.8174 4 16C4 17.5759 4.31039 19.1363 4.91345 20.5922C5.5165 22.0481 6.40036 23.371 7.51467 24.4853M12.2293 19.7707L7.51467 24.4853" stroke="#16A34A" stroke-width="2.66667" stroke-linecap="round" stroke-linejoin="round"/>
</svg>
