<svg width="32" height="32" viewBox="0 0 32 32" fill="none" xmlns="http://www.w3.org/2000/svg">
<path d="M23.6213 19.5787C22.0648 20.2842 20.3755 20.6492 18.6666 20.6492C16.9577 20.6492 15.2684 20.2842 13.7119 19.5787M25.7546 14.2107C23.2581 13.7583 20.9692 12.5264 19.2166 10.6919C17.464 8.85733 16.3378 6.51455 15.9999 4C10.0346 4 4.97594 8.16 3.95728 13.768M3.95728 19.136C4.66535 21.7582 6.24196 24.0627 8.42941 25.6727C10.6169 27.2828 13.2858 28.1033 15.9999 28C21.9653 28 27.0239 23.84 28.0426 18.232M11.5786 17.7893C11.8479 17.2507 11.9999 16.6427 11.9999 16C11.9999 15.3573 11.8479 14.7493 11.5786 14.2107C11.1755 13.4048 10.5122 12.7586 9.69607 12.3769C8.87993 11.9951 7.95878 11.9 7.08187 12.1071C6.20495 12.3141 5.42364 12.8112 4.86449 13.5178C4.30535 14.2243 4.00114 15.099 4.00114 16C4.00114 16.901 4.30535 17.7757 4.86449 18.4822C5.42364 19.1888 6.20495 19.6859 7.08187 19.8929C7.95878 20.1 8.87993 20.0049 9.69607 19.6232C10.5122 19.2414 11.1755 18.5952 11.5786 17.7893Z" stroke="white" stroke-width="2.66667" stroke-linecap="round" stroke-linejoin="round"/>
</svg>
