<svg width="32" height="32" viewBox="0 0 32 32" fill="none" xmlns="http://www.w3.org/2000/svg">
<path d="M14.732 3.90245C15.132 2.67445 16.8693 2.67445 17.268 3.90245L19.2933 10.1344C19.3805 10.4018 19.5499 10.6347 19.7774 10.7999C20.0049 10.9652 20.2788 11.0542 20.56 11.0544H27.1133C28.4053 11.0544 28.9413 12.7078 27.8973 13.4678L22.596 17.3184C22.3683 17.484 22.1988 17.7174 22.1119 17.9852C22.0249 18.2529 22.025 18.5414 22.112 18.8091L24.136 25.0411C24.536 26.2704 23.1293 27.2918 22.0853 26.5318L16.784 22.6811C16.5562 22.5155 16.2817 22.4263 16 22.4263C15.7183 22.4263 15.4439 22.5155 15.216 22.6811L9.91467 26.5318C8.87067 27.2918 7.464 26.2691 7.864 25.0411L9.88801 18.8091C9.97504 18.5414 9.97509 18.2529 9.88815 17.9852C9.80121 17.7174 9.63173 17.484 9.40401 17.3184L4.10267 13.4678C3.05734 12.7078 3.59601 11.0544 4.88667 11.0544H11.4387C11.7201 11.0545 11.9943 10.9656 12.222 10.8003C12.4498 10.6351 12.6194 10.402 12.7067 10.1344L14.732 3.90245Z" stroke="#16A34A" stroke-width="2.66667" stroke-linecap="round" stroke-linejoin="round"/>
</svg>
