<svg width="32" height="32" viewBox="0 0 32 32" fill="none" xmlns="http://www.w3.org/2000/svg">
<path d="M5.75732 8.42389C5.20016 8.98104 4.7582 9.64248 4.45667 10.3704C4.15514 11.0984 3.99994 11.8786 3.99994 12.6666C3.99994 13.4545 4.15514 14.2347 4.45667 14.9627C4.7582 15.6906 5.20016 16.3521 5.75732 16.9092L16 27.1519L26.2427 16.9092C27.3679 15.784 28 14.2579 28 12.6666C28 11.0752 27.3679 9.54911 26.2427 8.42389C25.1174 7.29866 23.5913 6.66652 22 6.66652C20.4087 6.66652 18.8825 7.29866 17.7573 8.42389L16 10.1812L14.2427 8.42389C13.6855 7.86673 13.0241 7.42477 12.2961 7.12323C11.5682 6.8217 10.7879 6.6665 9.99999 6.6665C9.21205 6.6665 8.43183 6.8217 7.70387 7.12323C6.97591 7.42477 6.31448 7.86673 5.75732 8.42389Z" stroke="white" stroke-width="2.66667" stroke-linecap="round" stroke-linejoin="round"/>
</svg>
