<svg width="24" height="24" viewBox="0 0 24 24" fill="none" xmlns="http://www.w3.org/2000/svg">
<path d="M3 15C3 16.0608 3.42143 17.0783 4.17157 17.8284C4.92172 18.5785 5.93913 19 7 19H16C16.6608 19 17.3151 18.869 17.925 18.6146C18.5348 18.3602 19.0882 17.9874 19.5532 17.5178C20.0181 17.0482 20.3853 16.4911 20.6336 15.8787C20.8819 15.2663 21.0064 14.6108 20.9997 13.95C20.9931 13.2892 20.8556 12.6363 20.5951 12.029C20.3346 11.4217 19.9563 10.872 19.4821 10.4118C19.0079 9.9516 18.4471 9.58996 17.8323 9.3478C17.2174 9.10564 16.5607 8.98776 15.9 9.00098C15.7734 8.34802 15.5178 7.72687 15.1483 7.17388C14.7787 6.62088 14.3026 6.14714 13.7477 5.78038C13.1928 5.41362 12.5704 5.1612 11.9168 5.03789C11.2632 4.91458 10.5916 4.92285 9.94127 5.06223C9.29092 5.20161 8.6749 5.4693 8.12924 5.84962C7.58359 6.22995 7.11927 6.71527 6.76345 7.27721C6.40763 7.83914 6.16745 8.4664 6.05696 9.12228C5.94648 9.77816 5.96791 10.4495 6.12 11.097C5.23422 11.2969 4.44281 11.7922 3.87581 12.5015C3.30881 13.2108 2.99995 14.0919 3 15Z" stroke="#16A34A" stroke-width="2" stroke-linecap="round" stroke-linejoin="round"/>
</svg>
