<svg width="32" height="32" viewBox="0 0 32 32" fill="none" xmlns="http://www.w3.org/2000/svg">
<path d="M22.6667 26.6668H29.3334V24.0002C29.3333 23.1689 29.0742 22.3583 28.5922 21.681C28.1102 21.0037 27.4291 20.4935 26.6437 20.2212C25.8583 19.9489 25.0075 19.928 24.2097 20.1615C23.4119 20.395 22.7066 20.8713 22.192 21.5242M22.6667 26.6668H9.33335M22.6667 26.6668V24.0002C22.6667 23.1255 22.4987 22.2895 22.192 21.5242M22.192 21.5242C21.6969 20.2868 20.8424 19.2261 19.7387 18.479C18.635 17.7319 17.3328 17.3326 16 17.3326C14.6672 17.3326 13.365 17.7319 12.2614 18.479C11.1577 19.2261 10.3032 20.2868 9.80802 21.5242M9.33335 26.6668H2.66669V24.0002C2.66675 23.1689 2.9258 22.3583 3.40784 21.681C3.88987 21.0037 4.57093 20.4935 5.35635 20.2212C6.14177 19.9489 6.99252 19.928 7.79034 20.1615C8.58815 20.395 9.29339 20.8713 9.80802 21.5242M9.33335 26.6668V24.0002C9.33335 23.1255 9.50135 22.2895 9.80802 21.5242M20 9.3335C20 10.3944 19.5786 11.4118 18.8284 12.1619C18.0783 12.9121 17.0609 13.3335 16 13.3335C14.9392 13.3335 13.9217 12.9121 13.1716 12.1619C12.4214 11.4118 12 10.3944 12 9.3335C12 8.27263 12.4214 7.25521 13.1716 6.50507C13.9217 5.75492 14.9392 5.3335 16 5.3335C17.0609 5.3335 18.0783 5.75492 18.8284 6.50507C19.5786 7.25521 20 8.27263 20 9.3335ZM28 13.3335C28 14.0407 27.7191 14.719 27.219 15.2191C26.7189 15.7192 26.0406 16.0002 25.3334 16.0002C24.6261 16.0002 23.9478 15.7192 23.4477 15.2191C22.9476 14.719 22.6667 14.0407 22.6667 13.3335C22.6667 12.6263 22.9476 11.948 23.4477 11.4479C23.9478 10.9478 24.6261 10.6668 25.3334 10.6668C26.0406 10.6668 26.7189 10.9478 27.219 11.4479C27.7191 11.948 28 12.6263 28 13.3335ZM9.33335 13.3335C9.33335 14.0407 9.0524 14.719 8.55231 15.2191C8.05221 15.7192 7.37393 16.0002 6.66669 16.0002C5.95944 16.0002 5.28117 15.7192 4.78107 15.2191C4.28097 14.719 4.00002 14.0407 4.00002 13.3335C4.00002 12.6263 4.28097 11.948 4.78107 11.4479C5.28117 10.9478 5.95944 10.6668 6.66669 10.6668C7.37393 10.6668 8.05221 10.9478 8.55231 11.4479C9.0524 11.948 9.33335 12.6263 9.33335 13.3335Z" stroke="#16A34A" stroke-width="2.66667" stroke-linecap="round" stroke-linejoin="round"/>
</svg>
