<svg width="115" height="17" viewBox="0 0 115 17" fill="none" xmlns="http://www.w3.org/2000/svg">
<path d="M13.2307 1.99367L8.33715 11.4585V16.1306H4.89354V11.4585L6.18915e-07 1.99367H3.90678L6.64555 7.91425L9.36419 1.99367H13.2307ZM19.7332 16.2917C18.6324 16.2917 17.6389 16.0567 16.7528 15.5868C15.8802 15.117 15.1887 14.4457 14.6786 13.573C14.1818 12.7004 13.9335 11.6801 13.9335 10.5121C13.9335 9.35748 14.1886 8.34386 14.6987 7.47121C15.2089 6.58514 15.907 5.90716 16.7931 5.43727C17.6792 4.96738 18.6726 4.73244 19.7735 4.73244C20.8744 4.73244 21.8679 4.96738 22.7539 5.43727C23.64 5.90716 24.3381 6.58514 24.8483 7.47121C25.3585 8.34386 25.6135 9.35748 25.6135 10.5121C25.6135 11.6666 25.3517 12.687 24.8282 13.573C24.318 14.4457 23.6132 15.117 22.7137 15.5868C21.8276 16.0567 20.8341 16.2917 19.7332 16.2917ZM19.7332 13.3112C20.3911 13.3112 20.9482 13.0696 21.4047 12.5863C21.8746 12.103 22.1095 11.4116 22.1095 10.5121C22.1095 9.61256 21.8813 8.92115 21.4248 8.43784C20.9818 7.95453 20.4314 7.71287 19.7735 7.71287C19.1022 7.71287 18.5451 7.95453 18.1021 8.43784C17.659 8.90773 17.4375 9.59913 17.4375 10.5121C17.4375 11.4116 17.6523 12.103 18.0819 12.5863C18.525 13.0696 19.0754 13.3112 19.7332 13.3112ZM38.5365 4.89354V16.1306H35.0929V14.6001C34.7438 15.0968 34.2672 15.4996 33.6631 15.8084C33.0724 16.1037 32.4145 16.2514 31.6896 16.2514C30.8303 16.2514 30.0718 16.0634 29.414 15.6875C28.7561 15.2982 28.246 14.741 27.8835 14.0161C27.521 13.2911 27.3397 12.4386 27.3397 11.4585V4.89354H30.7632V10.9954C30.7632 11.7472 30.9579 12.3312 31.3472 12.7474C31.7366 13.1636 32.2601 13.3717 32.918 13.3717C33.5893 13.3717 34.1196 13.1636 34.5089 12.7474C34.8982 12.3312 35.0929 11.7472 35.0929 10.9954V4.89354H38.5365Z" fill="url(#paint0_linear_0_76)"/>
<path d="M40.3253 10.5121C40.3253 9.34405 40.5603 8.32372 41.0302 7.45107C41.5135 6.57843 42.178 5.90716 43.0238 5.43727C43.883 4.96738 44.8631 4.73244 45.964 4.73244C47.3736 4.73244 48.5484 5.10164 49.4881 5.84003C50.4413 6.57843 51.0656 7.61889 51.361 8.96143H47.6958C47.3871 8.1022 46.7896 7.67259 45.9036 7.67259C45.2726 7.67259 44.7691 7.92096 44.3932 8.4177C44.0173 8.90101 43.8293 9.59913 43.8293 10.5121C43.8293 11.425 44.0173 12.1298 44.3932 12.6266C44.7691 13.1099 45.2726 13.3515 45.9036 13.3515C46.7896 13.3515 47.3871 12.9219 47.6958 12.0627H51.361C51.0656 13.3784 50.4413 14.4121 49.4881 15.1639C48.5349 15.9158 47.3602 16.2917 45.964 16.2917C44.8631 16.2917 43.883 16.0567 43.0238 15.5868C42.178 15.117 41.5135 14.4457 41.0302 13.573C40.5603 12.7004 40.3253 11.6801 40.3253 10.5121ZM52.5183 10.4919C52.5183 9.33734 52.7331 8.32372 53.1627 7.45107C53.6057 6.57843 54.2032 5.90716 54.955 5.43727C55.7068 4.96738 56.5459 4.73244 57.4722 4.73244C58.2643 4.73244 58.9557 4.89354 59.5465 5.21575C60.1506 5.53796 60.6138 5.96086 60.936 6.48445V4.89354H64.3796V16.1306H60.936V14.5397C60.6003 15.0633 60.1305 15.4862 59.5263 15.8084C58.9356 16.1306 58.2442 16.2917 57.4521 16.2917C56.5392 16.2917 55.7068 16.0567 54.955 15.5868C54.2032 15.1035 53.6057 14.4255 53.1627 13.5529C52.7331 12.6668 52.5183 11.6465 52.5183 10.4919ZM60.936 10.5121C60.936 9.65283 60.6943 8.97485 60.211 8.47811C59.7411 7.98138 59.1638 7.73301 58.4791 7.73301C57.7944 7.73301 57.2104 7.98138 56.7271 8.47811C56.2572 8.96143 56.0223 9.6327 56.0223 10.4919C56.0223 11.3511 56.2572 12.0358 56.7271 12.546C57.2104 13.0427 57.7944 13.2911 58.4791 13.2911C59.1638 13.2911 59.7411 13.0427 60.211 12.546C60.6943 12.0493 60.936 11.3713 60.936 10.5121ZM73.7178 4.77272C75.0335 4.77272 76.0807 5.20233 76.8593 6.06155C77.6514 6.90735 78.0475 8.07535 78.0475 9.56557V16.1306H74.624V10.0287C74.624 9.27692 74.4294 8.69292 74.04 8.27673C73.6507 7.86055 73.1271 7.65245 72.4693 7.65245C71.8114 7.65245 71.2878 7.86055 70.8985 8.27673C70.5091 8.69292 70.3145 9.27692 70.3145 10.0287V16.1306H66.8709V4.89354H70.3145V6.38376C70.6635 5.88702 71.1334 5.49768 71.7241 5.21575C72.3149 4.92039 72.9794 4.77272 73.7178 4.77272Z" fill="#1E293B"/>
<path d="M96.571 4.89354L93.5302 16.1306H89.7241L87.9519 8.8406L86.1194 16.1306H82.3334L79.2724 4.89354H82.7161L84.307 12.9286L86.1999 4.89354H89.8449L91.758 12.8883L93.3288 4.89354H96.571ZM99.6161 3.72554C99.012 3.72554 98.5152 3.55101 98.1259 3.20195C97.75 2.83946 97.562 2.39643 97.562 1.87284C97.562 1.33582 97.75 0.892786 98.1259 0.543727C98.5152 0.181242 99.012 -7.20192e-07 99.6161 -7.20192e-07C100.207 -7.20192e-07 100.69 0.181242 101.066 0.543727C101.455 0.892786 101.65 1.33582 101.65 1.87284C101.65 2.39643 101.455 2.83946 101.066 3.20195C100.69 3.55101 100.207 3.72554 99.6161 3.72554ZM101.328 4.89354V16.1306H97.8842V4.89354H101.328ZM110.67 4.77272C111.986 4.77272 113.033 5.20233 113.812 6.06155C114.604 6.90735 115 8.07535 115 9.56557V16.1306H111.577V10.0287C111.577 9.27692 111.382 8.69292 110.993 8.27673C110.603 7.86055 110.08 7.65245 109.422 7.65245C108.764 7.65245 108.24 7.86055 107.851 8.27673C107.462 8.69292 107.267 9.27692 107.267 10.0287V16.1306H103.823V4.89354H107.267V6.38376C107.616 5.88702 108.086 5.49768 108.677 5.21575C109.267 4.92039 109.932 4.77272 110.67 4.77272Z" fill="url(#paint1_linear_0_76)"/>
<defs>
<linearGradient id="paint0_linear_0_76" x1="-0.140966" y1="9.08226" x2="116.558" y2="9.08226" gradientUnits="userSpaceOnUse">
<stop stop-color="#DC2626"/>
<stop offset="1" stop-color="#B01219"/>
</linearGradient>
<linearGradient id="paint1_linear_0_76" x1="-0.140966" y1="9.08226" x2="116.558" y2="9.08226" gradientUnits="userSpaceOnUse">
<stop stop-color="#16A34A"/>
<stop offset="1" stop-color="#0B6B3A"/>
</linearGradient>
</defs>
</svg>
